<svg width="240" height="64" viewBox="0 0 95.64 25.5" xmlns="http://www.w3.org/2000/svg" class="jss44" style="color: rgb(255, 255, 255);"><g id="img"><rect id="rect3778" height="64" width="240" y="0" x="0" fill="none"></rect><g id="g4194"><g id="g4145" fill="currentColor"><path class="fil1" d="M1.96 16.21l-1.96 0.76c0.23,2.62 3.59,5.33 7.34,4.62 5.52,-1.05 6.3,-7.93 0.26,-9.96 -1.07,-0.36 -3.43,-1.06 -4.19,-1.99 -0.8,-0.99 -0.7,-3.06 1.83,-3.58 1.51,-0.3 3.67,0.53 3.82,2.16l2.12 -0.88c-0.19,-2.01 -4.01,-4.93 -8.06,-2.95 -2.77,1.35 -3.83,5.46 -0.38,7.72 1.97,1.29 8.08,1.95 6.48,5.62 -0.95,2.16 -5,2.71 -6.71,-0.4 -0.32,-0.58 -0.13,-0.65 -0.55,-1.12z"></path><path class="fil2" d="M47.99 16.21l-1.96 0.76c0.03,1.52 1.34,2.89 2.5,3.68 1.47,1 3.1,1.27 4.83,0.94 3.56,-0.68 5.59,-4.09 3.74,-7.39 -1.65,-2.95 -6.49,-2.82 -7.76,-4.62 -2.34,-3.3 4.76,-5.41 5.74,-1.36l2.1 -0.89c-0.21,-1.35 -1.83,-2.73 -3.02,-3.17 -5.85,-2.18 -10.6,4.46 -5.48,7.89 2.09,1.39 7.8,1.83 6.58,5.55 -0.51,1.57 -2.64,2.16 -4.1,1.79 -1.92,-0.5 -2.33,-1.52 -3,-2.89 -0.16,-0.32 -0.07,-0.14 -0.17,-0.29z"></path><path class="fil1" d="M21.58 16.36c-0.93,4.11 -4.96,3.56 -5.7,2.23 -0.72,-1.31 0.38,-2.57 1.56,-2.89 0.6,-0.17 1.69,-0.14 2.33,-0.09 0.36,0.02 0.63,0.12 0.97,0.24 0.31,0.11 0.17,0.02 0.42,0.18 0.04,0.02 0.15,0.09 0.18,0.12 0.21,0.15 0.16,0.14 0.24,0.21zm-7.86 -4.39c0.03,0.03 0.07,0.03 0.08,0.08 0.05,0.15 1.51,0.8 2.05,0.84 1.41,-2.81 5.66,-1.82 5.73,1.36 -1.16,-0.28 -1.26,-0.61 -2.71,-0.6 -3.07,0.01 -5.84,0.99 -5.59,4.68 0.18,2.73 3.85,4.16 6.34,3.02 1.14,-0.53 1.12,-0.96 1.96,-1.52l0 1.51c2.88,0 2.26,0.88 2.26,-4.52 0,-1.99 0.18,-4.36 -1.09,-5.85 -1.09,-1.28 -3.17,-2.1 -4.91,-1.81 -2.04,0.34 -3.04,0.97 -4.12,2.81z"></path><path class="fil2" d="M75.15 16.21c-0.06,3.06 -4.31,4.49 -5.64,2.48 -0.61,-0.93 -0.2,-1.86 0.62,-2.52 1.34,-1.08 3.63,-0.66 5.02,0.04zm-7.86 -4.24l0.98 0.56c0.41,0.17 0.69,0.32 1.15,0.36 1.4,-2.79 5.73,-1.85 5.73,1.36 -1.63,-0.76 -4.04,-0.92 -5.73,-0.15 -4.18,1.91 -2.98,7.1 0.9,7.54 1.11,0.13 1.83,0.19 2.87,-0.29 1.15,-0.53 1.12,-0.96 1.96,-1.52l0 1.51c2.88,0 2.27,0.88 2.27,-4.52 0,-2.01 0.19,-4.33 -1.1,-5.85 -2.04,-2.41 -6.73,-2.92 -9.03,1z"></path><path class="fil1" d="M42.41 13.95l-6.64 0c0.86,-3.6 5.78,-3.6 6.64,0zm1.96 4.53l-1.96 -0.91c-1.83,3.6 -6.79,2.03 -6.8,-1.66l9.21 0c0,-3.29 -1.05,-5.95 -4.64,-6.68 -3.15,-0.64 -5.98,1.5 -6.71,4.53 -1.6,6.53 5.48,10.3 9.81,6.49 0.4,-0.35 0.96,-1.24 1.09,-1.77z"></path><path class="fil1" d="M27.31 9.57l-2.26 0c0,2.6 -0.37,2.12 2.26,2.12l0 9.65 2.27 0 0 -9.65c3.74,0 3.17,0.52 3.17,-2.12l-3.17 0c0,-0.79 -0.08,-2.15 0.41,-2.75 0.59,-0.72 1.96,-0.73 2.61,-0.42l0.79 -2.09c-0.83,-0.09 -3,-0.81 -4.68,0.62 -1.58,1.36 -1.4,2.63 -1.4,4.64z"></path><path class="fil2" d="M60.63 6.1c-0.33,0.71 -0.12,2.58 -0.12,3.47l-1.96 0 0 2.12 1.96 0c0,1.86 -0.2,6.08 0.28,7.57 0.7,2.18 3.55,2.82 5.46,1.93l-0.78 -1.95c-2.18,0.52 -2.55,-0.25 -2.54,-2.27 0,-1.76 0,-3.52 0,-5.28l2.87 0 0 -2.12 -2.87 0 0 -3.62 -1.82 -0.01c-0.61,0.07 -0.28,0.05 -0.48,0.16z"></path><path class="fil2" d="M90.09 9.57l-2.11 0 0 2.12 2.11 0 0 6.64c0,1.71 1.46,3.17 3.17,3.17 0.89,0 1.75,0.11 2.38,-0.35l-0.71 -1.9c-3.34,0.6 -2.57,-1.46 -2.57,-7.56l2.86 0 0 -2.12 -2.86 0 0 -3.62 -2.27 0 0 3.62z"></path><path class="fil2" d="M81.94 11.23l0 -1.66 -2.26 0 0 11.77c3.06,0 2.42,1.09 2.41,-5.88 0,-1.19 -0.02,-2.36 0.96,-3.12 1.16,-0.88 1.98,-0.8 3.42,-0.8l0 -2.27c-1.05,0 -1.88,-0.04 -2.77,0.4 -1.2,0.6 -1.01,0.73 -1.76,1.56z"></path></g></g></g></svg>